<svg width="" height="20" viewBox="0 0 350.00000000000006 54.38881794319855" className="looka-1j8o68f" xmlns="http://www.w3.org/2000/svg" fill="none" ><defs id="SvgjsDefs1359"></defs><g id="SvgjsG1360" transform="matrix(3.7928045581912486,0,0,3.7928045581912486,-1.2895577456213658,-22.756827349147493)" fill="#111111"><path d="M5.58 12.18 c-1.56 0 -2.8 1.1 -2.8 2.88 c0 1.72 1.24 2.9 2.8 2.9 c1.54 0 2.86 -1.12 2.86 -2.9 c0 -1.72 -1.32 -2.88 -2.86 -2.88 z M8.6 6.02 l2.44 0 l0 13.98 l-2.28 0 l-0.16 -1.36 c-0.76 1.18 -1.98 1.58 -3.18 1.58 c-2.9 0 -5.08 -1.92 -5.08 -5.16 c0 -3.4 2.14 -5.16 5.02 -5.16 c1.04 0 2.66 0.56 3.24 1.58 l0 -5.46 z M17.8 9.94 c3.14 0 5.16 2.32 5.16 5.14 c0 2.84 -1.94 5.14 -5.14 5.14 s-5.12 -2.3 -5.12 -5.14 c0 -2.82 1.96 -5.14 5.1 -5.14 z M17.82 12.16 c-1.76 0 -2.68 1.44 -2.68 2.92 c0 1.5 0.9 2.9 2.68 2.9 s2.68 -1.4 2.68 -2.9 c0 -1.48 -1.04 -2.92 -2.68 -2.92 z M31.46 17.14 l1.64 1.6 c-1.14 1.12 -2.34 1.56 -3.8 1.56 c-2.86 0 -5.24 -1.72 -5.24 -5.22 s2.38 -5.22 5.24 -5.22 c1.4 0 2.48 0.4 3.56 1.46 l-1.54 1.62 c-0.58 -0.52 -1.3 -0.78 -1.98 -0.78 c-1.64 0 -2.84 1.2 -2.84 2.92 c0 1.88 1.28 2.88 2.8 2.88 c0.78 0 1.56 -0.22 2.16 -0.82 z M41.980000000000004 11.16 l-1.36 1.6 c-0.7 -0.66 -1.5 -0.88 -2.44 -0.88 c-1.16 0 -1.8 0.36 -1.8 0.98 c0 0.64 0.58 1 1.84 1.08 c1.86 0.12 4.22 0.54 4.22 3.16 c0 1.74 -1.42 3.24 -4.24 3.24 c-1.56 0 -3.12 -0.26 -4.56 -1.76 l1.2 -1.74 c0.7 0.78 2.3 1.36 3.4 1.38 c0.92 0.02 1.78 -0.46 1.78 -1.18 c0 -0.68 -0.56 -0.96 -1.96 -1.04 c-1.86 -0.14 -4.08 -0.82 -4.08 -3.06 c0 -2.28 2.36 -3.08 4.16 -3.08 c1.54 0 2.7 0.3 3.84 1.3 z M43.940000000000005 6.02 l2.44 0 l0 8.08 l3.32 -3.96 l2.92 0 l0 0.14 l-4.02 4.5 l4.58 5.04 l0 0.18 l-2.94 0 l-3.86 -4.46 l0 4.46 l-2.44 0 l0 -13.98 z M64.08 15.940000000000001 l-7.7 0 c0.16 1.22 1.22 2.1 2.94 2.1 c0.9 0 2.08 -0.34 2.64 -0.92 l1.56 1.54 c-1.04 1.08 -2.74 1.6 -4.24 1.6 c-3.4 0 -5.42 -2.1 -5.42 -5.26 c0 -3 2.04 -5.16 5.24 -5.16 c3.3 0 5.36 2.04 4.98 6.1 z M56.42 13.92 l5.32 0 c-0.16 -1.28 -1.16 -1.92 -2.56 -1.92 c-1.32 0 -2.4 0.64 -2.76 1.92 z M66.53999999999999 7.619999999999999 l2.44 -0.26 l0 2.8 l2.72 0 l0 2.1 l-2.74 0 l0 4.26 c0 0.94 0.52 1.4 1.28 1.4 c0.38 0 0.82 -0.12 1.18 -0.3 l0.68 2.08 c-0.7 0.28 -1.28 0.4 -2.02 0.42 c-2.14 0.08 -3.54 -1.14 -3.54 -3.6 l0 -4.26 l-1.84 0 l0 -2.1 l1.84 0 l0 -2.54 z M80.34 17.14 l1.64 1.6 c-1.14 1.12 -2.34 1.56 -3.8 1.56 c-2.86 0 -5.24 -1.72 -5.24 -5.22 s2.38 -5.22 5.24 -5.22 c1.4 0 2.48 0.4 3.56 1.46 l-1.54 1.62 c-0.58 -0.52 -1.3 -0.78 -1.98 -0.78 c-1.64 0 -2.84 1.2 -2.84 2.92 c0 1.88 1.28 2.88 2.8 2.88 c0.78 0 1.56 -0.22 2.16 -0.82 z M83.06 6 l2.44 0 l0 5.48 c0.88 -1.14 1.96 -1.48 3.08 -1.48 c2.8 0 4.04 1.9 4.04 4.8 l0 5.2 l-2.44 0 l0 -5.18 c0 -1.8 -0.94 -2.56 -2.24 -2.56 c-1.44 0 -2.44 1.22 -2.44 2.7 l0 5.04 l-2.44 0 l0 -14 z"></path></g></svg>
