<?xml version="1.0" encoding="iso-8859-1"?>
<svg fill="#000000" height="800px" width="800px" version="1.1" id="Layer_1" xmlns="http://www.w3.org/2000/svg" xmlns:xlink="http://www.w3.org/1999/xlink" 
	 viewBox="0 0 511.996 511.996" xml:space="preserve">
<g>
	<g>
		<path d="M511.934,202.302c-0.545-9.17-4.628-17.579-11.498-23.678c-6.3-5.594-14.405-8.674-22.824-8.674
			c-9.829,0-19.206,4.212-25.727,11.558c-5.966,6.721-13.558,20.929-18.637,33.554c-6.301,15.664-4.9,29.601-4.9,29.601
			c-17.404,10.672-50.94,24.079-107.531,21.586l-0.019-0.135c22.09-30.136,44.194-69.995,58.526-120.449
			c7.471-1.401,14.509-8.332,20.964-20.696c1.945-3.725,0.501-8.322-3.223-10.267c-3.728-1.946-8.323-0.502-10.267,3.223
			c-5.537,10.606-9.572,12.795-10.341,12.801c-0.968-0.118-5.94-4.013-10.86-19.808c-3.814-12.24-5.728-25.898-5.377-32.031
			c0.293-5.113,2.56-9.805,6.382-13.214c3.824-3.407,8.757-5.107,13.856-4.831c10.555,0.606,18.651,9.686,18.046,20.241
			c-0.24,4.195,2.965,7.792,7.162,8.031c4.177,0.243,7.792-2.966,8.031-7.162c1.085-18.931-13.434-35.217-32.367-36.303
			c-9.18-0.529-18,2.553-24.855,8.665c-6.856,6.113-10.922,14.531-11.447,23.701c-0.515,8.971,2.085,24.904,6.182,37.881
			c3.759,11.909,8.314,20.299,13.608,25.136c-19.974,70.643-55.776,119.635-84.227,149.558
			c-22.979,24.166-44.485,39.632-56.993,47.64c-2.997-19.862-6.791-41.622-11.577-64.664l0.12-0.331
			c64.661-67.039,69.38-127.685,69.028-147.021c17.793-10.372,24.737-53.565,24.271-65.133
			c-0.766-18.973-16.609-33.744-35.751-32.976c-9.179,0.37-17.664,4.292-23.893,11.046c-6.228,6.752-9.453,15.526-9.083,24.706
			c0.46,11.38,10.779,53.681,29.211,62.851c0.07,6.753-0.593,20.051-5.384,37.503c-6.06,22.072-20.084,55.195-52.471,91.085
			c-11.423-50.816-27.674-106.773-50.805-161.763c12.113-16.553,3.564-58.243-0.886-68.733c-7.405-17.458-27.631-25.64-45.09-18.232
			c-3.868,1.641-5.675,6.107-4.034,9.976c1.641,3.868,6.109,5.675,9.976,4.034c9.734-4.129,21.01,0.432,25.138,10.166
			c2.398,5.654,5.2,19.158,5.737,31.969c0.693,16.529-2.676,21.873-3.54,22.306c-0.917,0.328-7.102-0.968-18.506-12.957
			c-8.836-9.29-16.596-20.69-18.995-26.344c-1.64-3.869-6.108-5.676-9.975-4.035c-3.868,1.641-5.675,6.107-4.035,9.975
			c3.508,8.273,12.89,21.411,22.306,31.235c10.754,11.222,20.204,17.015,28.213,17.346c18.642,44.451,32.724,89.564,43.371,131.986
			c-19.98-0.539-72.452-4.773-108.884-33.167c2.443-6.948,2.132-16.869-0.984-29.7c-3.212-13.224-9.234-28.202-14.317-35.613
			c-6.417-9.354-17.028-14.938-28.383-14.938c-6.958,0-13.677,2.087-19.432,6.034c-7.574,5.196-12.672,13.033-14.354,22.064
			c-1.681,9.03,0.255,18.176,5.451,25.752c7.927,11.552,37.312,37.82,56.03,37.82c1.822,0,3.535-0.232,5.131-0.688
			c17.789,14.312,40.875,24.936,68.415,31.267c24.44,5.618,45.714,6.424,55.054,6.467c10.101,42.871,16.709,82.463,21.009,115.099
			c10.601,80.456,9.916,137.247,9.909,137.811c-0.061,4.202,3.295,7.658,7.497,7.719c0.038,0,0.075,0.001,0.113,0.001
			c4.15,0,7.545-3.334,7.606-7.497c0.009-0.572,0.719-58.246-9.997-139.73c-0.27-2.049-0.551-4.132-0.838-6.235
			c11.719-6.965,37.212-23.823,65.17-53.112c5.865-6.144,12.029-13.068,18.304-20.77c8.691,0.649,16.94,0.961,24.732,0.961
			c53.96,0,86.749-14.292,104.009-25.312c2.288,0.953,4.884,1.449,7.79,1.449c18.706,0,49.015-21.346,57.35-30.733
			C509.42,220.306,512.479,211.472,511.934,202.302z M260.384,94.599c-4.987-11.811-8.223-25.217-8.47-31.354
			c-0.207-5.117,1.591-10.008,5.063-13.773c3.473-3.764,8.202-5.951,13.321-6.157c0.265-0.011,0.529-0.016,0.791-0.016
			c10.316,0,18.723,8.082,19.139,18.4c0.247,6.137-1.898,19.761-5.918,31.935c-5.184,15.704-10.22,19.517-11.189,19.622
			C272.142,113.228,266.815,109.827,260.384,94.599z M63.151,195.111c-0.002,0.002-0.277,0.151-1.083,0.151
			c-10.378,0-36.037-20.362-43.481-31.213c-2.896-4.222-3.977-9.321-3.039-14.357c0.938-5.035,3.78-9.404,8.004-12.3
			c3.209-2.201,6.953-3.365,10.823-3.365c6.337,0,12.256,3.114,15.834,8.329c3.475,5.063,8.904,17.74,11.979,30.187
			C66.151,188.605,63.912,194.514,63.151,195.111z M491.942,217.072c-7.295,8.219-33.734,25.619-45.971,25.619
			c-1.365,0-1.999-0.256-2.109-0.341c-0.686-0.693-2.172-6.832,3.762-22.275c4.598-11.968,11.563-23.87,15.641-28.464
			c3.636-4.095,8.866-6.444,14.348-6.444c4.69,0,9.208,1.718,12.72,4.836c3.83,3.401,6.107,8.089,6.41,13.202
			C497.047,208.318,495.342,213.243,491.942,217.072z"/>
	</g>
</g>
</svg>